<svg width="100%" viewBox="0 0 680 588" role="img" xmlns="http://www.w3.org/2000/svg">
<title>数栈离线平台工作流 dtstack_batch_ai 流程图</title>
<desc>Dify 工作流：11条意图分支，包含NL2SQL/代码智能/文档问答等场景</desc>
<defs>
  <marker id="arr" viewBox="0 0 10 10" refX="8" refY="5" markerWidth="5" markerHeight="5" orient="auto-start-reverse">
    <path d="M2 2L8 5L2 8" fill="none" stroke="context-stroke" stroke-width="1.5" stroke-linecap="round" stroke-linejoin="round"/>
  </marker>
</defs>
<rect x="0" y="0" width="680" height="588" fill="#0A1929"/>
<rect x="0" y="0" width="680" height="34" rx="0" fill="#00BCD4" stroke="none"/>
<text x="340" y="17" text-anchor="middle" dominant-baseline="central" fill="#003748" font-size="13" font-weight="500" font-family="sans-serif">数栈离线平台工作流（dtstack_batch_ai）</text>
<rect x="16" y="54" width="72" height="28" rx="14" fill="#455A64" stroke="none"/>
<text x="52" y="68" text-anchor="middle" dominant-baseline="central" fill="#FFFFFF" font-size="10" font-weight="400" font-family="sans-serif">开始</text>
<line x1="88" y1="68" x2="100" y2="68" stroke="#78909C" stroke-width="0.8" marker-end="url(#arr)"/>
<rect x="102" y="54" width="126" height="28" rx="4" fill="#0096C7" stroke="none"/>
<text x="165" y="68" text-anchor="middle" dominant-baseline="central" fill="#FFFFFF" font-size="9" font-weight="400" font-family="sans-serif">DTStack 用户身份验证</text>
<line x1="228" y1="68" x2="242" y2="68" stroke="#78909C" stroke-width="0.8" marker-end="url(#arr)"/>
<polygon points="282,46 320,68 282,90 244,68" fill="#5E35B1" stroke="none"/>
  <text x="282" y="68" text-anchor="middle" dominant-baseline="central" fill="#FFFFFF" font-size="9" font-weight="400" font-family="sans-serif">条件分支</text>
<line x1="320" y1="68" x2="322" y2="68" stroke="#78909C" stroke-width="0.8"/>
<line x1="322" y1="68" x2="322" y2="548" stroke="#37474F" stroke-width="1.2"/>
<line x1="322" y1="122" x2="366" y2="122" stroke="#78909C" stroke-width="0.7"/>
<text x="326" y="107" text-anchor="start" dominant-baseline="central" fill="#90CAF9" font-size="9" font-weight="400" font-family="sans-serif">nl2sql</text>
<polygon points="408,102 450,122 408,142 366,122" fill="#5E35B1" stroke="none"/>
  <text x="408" y="122" text-anchor="middle" dominant-baseline="central" fill="#FFFFFF" font-size="8" font-weight="400" font-family="sans-serif">SQL类型判断</text>
<line x1="408" y1="102" x2="408" y2="100" stroke="#78909C" stroke-width="0.6"/>
<text x="410" y="98" text-anchor="start" dominant-baseline="central" fill="#EF9A9A" font-size="8" font-weight="400" font-family="sans-serif">是(空)</text>
<rect x="466" y="82" width="104" height="22" rx="4" fill="#0096C7" stroke="none"/>
<text x="518" y="93" text-anchor="middle" dominant-baseline="central" fill="#FFFFFF" font-size="8" font-weight="400" font-family="sans-serif">DTStack格式化(直接)</text>
<line x1="450" y1="106" x2="464" y2="106" stroke="#78909C" stroke-width="0.6" marker-end="url(#arr)"/>
<line x1="570" y1="106" x2="594" y2="106" stroke="#78909C" stroke-width="0.6" marker-end="url(#arr)"/>
<rect x="596" y="81" width="60" height="22" rx="11" fill="#26C6DA" stroke="none"/>
<text x="626" y="106" text-anchor="middle" dominant-baseline="central" fill="#004D40" font-size="8" font-weight="400" font-family="sans-serif">结束</text>
<line x1="450" y1="122" x2="464" y2="122" stroke="#78909C" stroke-width="0.6" marker-end="url(#arr)"/>
<text x="452" y="114" text-anchor="start" dominant-baseline="central" fill="#A5D6A7" font-size="8" font-weight="400" font-family="sans-serif">否(完整)</text>
<rect x="466" y="146" width="68" height="28" rx="4" fill="#0096C7" stroke="none"/>
<text x="500" y="160" text-anchor="middle" dominant-baseline="central" fill="#FFFFFF" font-size="8" font-weight="400" font-family="sans-serif">Milvus检索</text>
<line x1="534" y1="160" x2="538" y2="160" stroke="#78909C" stroke-width="0.6" marker-end="url(#arr)"/>
<rect x="540" y="146" width="58" height="28" rx="4" fill="#0096C7" stroke="none"/>
<text x="569" y="160" text-anchor="middle" dominant-baseline="central" fill="#FFFFFF" font-size="8" font-weight="400" font-family="sans-serif">M_Schema</text>
<line x1="598" y1="160" x2="602" y2="160" stroke="#78909C" stroke-width="0.6" marker-end="url(#arr)"/>
<rect x="604" y="146" width="58" height="28" rx="4" fill="#0277BD" stroke="none"/>
<text x="633" y="160" text-anchor="middle" dominant-baseline="central" fill="#FFFFFF" font-size="8" font-weight="400" font-family="sans-serif">NL2SQL</text>
<line x1="662" y1="160" x2="594" y2="160" stroke="#78909C" stroke-width="0.6" marker-end="url(#arr)"/>
<rect x="596" y="146" width="60" height="28" rx="14" fill="#26C6DA" stroke="none"/>
<text x="626" y="160" text-anchor="middle" dominant-baseline="central" fill="#004D40" font-size="9" font-weight="400" font-family="sans-serif">结束</text>
<line x1="322" y1="206" x2="332" y2="206" stroke="#78909C" stroke-width="0.7" marker-end="url(#arr)"/>
  <text x="326" y="191" text-anchor="start" dominant-baseline="central" fill="#90CAF9" font-size="9" font-weight="400" font-family="sans-serif">code_optimization</text>
  <rect x="336" y="192" width="122" height="28" rx="4" fill="#0277BD" stroke="none"/>
  <text x="397" y="206" text-anchor="middle" dominant-baseline="central" fill="#FFFFFF" font-size="9" font-weight="400" font-family="sans-serif">代码智能优化（LLM）</text>
  <line x1="458" y1="206" x2="592" y2="206" stroke="#78909C" stroke-width="0.7" marker-end="url(#arr)"/>
  <rect x="596" y="192" width="60" height="28" rx="14" fill="#26C6DA" stroke="none"/>
  <text x="626" y="206" text-anchor="middle" dominant-baseline="central" fill="#004D40" font-size="9" font-weight="400" font-family="sans-serif">结束</text>
<line x1="322" y1="244" x2="332" y2="244" stroke="#78909C" stroke-width="0.7" marker-end="url(#arr)"/>
  <text x="326" y="229" text-anchor="start" dominant-baseline="central" fill="#90CAF9" font-size="9" font-weight="400" font-family="sans-serif">code_explain</text>
  <rect x="336" y="230" width="122" height="28" rx="4" fill="#0277BD" stroke="none"/>
  <text x="397" y="244" text-anchor="middle" dominant-baseline="central" fill="#FFFFFF" font-size="9" font-weight="400" font-family="sans-serif">代码智能解释（LLM）</text>
  <line x1="458" y1="244" x2="592" y2="244" stroke="#78909C" stroke-width="0.7" marker-end="url(#arr)"/>
  <rect x="596" y="230" width="60" height="28" rx="14" fill="#26C6DA" stroke="none"/>
  <text x="626" y="244" text-anchor="middle" dominant-baseline="central" fill="#004D40" font-size="9" font-weight="400" font-family="sans-serif">结束</text>
<line x1="322" y1="282" x2="332" y2="282" stroke="#78909C" stroke-width="0.7" marker-end="url(#arr)"/>
  <text x="326" y="267" text-anchor="start" dominant-baseline="central" fill="#90CAF9" font-size="9" font-weight="400" font-family="sans-serif">code_annotation</text>
  <rect x="336" y="268" width="122" height="28" rx="4" fill="#0277BD" stroke="none"/>
  <text x="397" y="282" text-anchor="middle" dominant-baseline="central" fill="#FFFFFF" font-size="9" font-weight="400" font-family="sans-serif">代码智能注释（LLM）</text>
  <line x1="458" y1="282" x2="592" y2="282" stroke="#78909C" stroke-width="0.7" marker-end="url(#arr)"/>
  <rect x="596" y="268" width="60" height="28" rx="14" fill="#26C6DA" stroke="none"/>
  <text x="626" y="282" text-anchor="middle" dominant-baseline="central" fill="#004D40" font-size="9" font-weight="400" font-family="sans-serif">结束</text>
<line x1="322" y1="320" x2="332" y2="320" stroke="#78909C" stroke-width="0.7" marker-end="url(#arr)"/>
  <text x="326" y="305" text-anchor="start" dominant-baseline="central" fill="#90CAF9" font-size="9" font-weight="400" font-family="sans-serif">error_log_explain</text>
  <rect x="336" y="306" width="122" height="28" rx="4" fill="#0277BD" stroke="none"/>
  <text x="397" y="320" text-anchor="middle" dominant-baseline="central" fill="#FFFFFF" font-size="9" font-weight="400" font-family="sans-serif">日志智能解析（LLM）</text>
  <line x1="458" y1="320" x2="592" y2="320" stroke="#78909C" stroke-width="0.7" marker-end="url(#arr)"/>
  <rect x="596" y="306" width="60" height="28" rx="14" fill="#26C6DA" stroke="none"/>
  <text x="626" y="320" text-anchor="middle" dominant-baseline="central" fill="#004D40" font-size="9" font-weight="400" font-family="sans-serif">结束</text>
<line x1="322" y1="358" x2="332" y2="358" stroke="#78909C" stroke-width="0.7" marker-end="url(#arr)"/>
  <text x="326" y="343" text-anchor="start" dominant-baseline="central" fill="#90CAF9" font-size="9" font-weight="400" font-family="sans-serif">code_continuation</text>
  <rect x="336" y="344" width="122" height="28" rx="4" fill="#0277BD" stroke="none"/>
  <text x="397" y="358" text-anchor="middle" dominant-baseline="central" fill="#FFFFFF" font-size="9" font-weight="400" font-family="sans-serif">代码续写（LLM）</text>
  <line x1="458" y1="358" x2="592" y2="358" stroke="#78909C" stroke-width="0.7" marker-end="url(#arr)"/>
  <rect x="596" y="344" width="60" height="28" rx="14" fill="#26C6DA" stroke="none"/>
  <text x="626" y="358" text-anchor="middle" dominant-baseline="central" fill="#004D40" font-size="9" font-weight="400" font-family="sans-serif">结束</text>
<line x1="322" y1="396" x2="332" y2="396" stroke="#78909C" stroke-width="0.7" marker-end="url(#arr)"/>
  <text x="326" y="381" text-anchor="start" dominant-baseline="central" fill="#90CAF9" font-size="9" font-weight="400" font-family="sans-serif">analyze_intent</text>
  <rect x="336" y="382" width="122" height="28" rx="4" fill="#0277BD" stroke="none"/>
  <text x="397" y="396" text-anchor="middle" dominant-baseline="central" fill="#FFFFFF" font-size="9" font-weight="400" font-family="sans-serif">Query重写（LLM）</text>
  <line x1="458" y1="396" x2="462" y2="396" stroke="#78909C" stroke-width="0.7" marker-end="url(#arr)"/>
  <rect x="466" y="382" width="120" height="28" rx="4" fill="#0277BD" stroke="none"/>
  <text x="526" y="396" text-anchor="middle" dominant-baseline="central" fill="#FFFFFF" font-size="9" font-weight="400" font-family="sans-serif">意图识别（LLM）</text>
  <line x1="586" y1="396" x2="592" y2="396" stroke="#78909C" stroke-width="0.7" marker-end="url(#arr)"/>
  <rect x="596" y="382" width="60" height="28" rx="14" fill="#26C6DA" stroke="none"/>
  <text x="626" y="396" text-anchor="middle" dominant-baseline="central" fill="#004D40" font-size="9" font-weight="400" font-family="sans-serif">结束</text>
<line x1="322" y1="434" x2="332" y2="434" stroke="#78909C" stroke-width="0.7" marker-end="url(#arr)"/>
  <text x="326" y="419" text-anchor="start" dominant-baseline="central" fill="#90CAF9" font-size="9" font-weight="400" font-family="sans-serif">doc_query</text>
  <rect x="336" y="420" width="122" height="28" rx="4" fill="#0096C7" stroke="none"/>
  <text x="397" y="434" text-anchor="middle" dominant-baseline="central" fill="#FFFFFF" font-size="9" font-weight="400" font-family="sans-serif">Milvus文档检索</text>
  <line x1="458" y1="434" x2="462" y2="434" stroke="#78909C" stroke-width="0.7" marker-end="url(#arr)"/>
  <rect x="466" y="420" width="120" height="28" rx="4" fill="#0277BD" stroke="none"/>
  <text x="526" y="434" text-anchor="middle" dominant-baseline="central" fill="#FFFFFF" font-size="9" font-weight="400" font-family="sans-serif">产品文档问答（LLM）</text>
  <line x1="586" y1="434" x2="592" y2="434" stroke="#78909C" stroke-width="0.7" marker-end="url(#arr)"/>
  <rect x="596" y="420" width="60" height="28" rx="14" fill="#26C6DA" stroke="none"/>
  <text x="626" y="434" text-anchor="middle" dominant-baseline="central" fill="#004D40" font-size="9" font-weight="400" font-family="sans-serif">结束</text>
<line x1="322" y1="472" x2="332" y2="472" stroke="#78909C" stroke-width="0.7" marker-end="url(#arr)"/>
  <text x="326" y="457" text-anchor="start" dominant-baseline="central" fill="#90CAF9" font-size="9" font-weight="400" font-family="sans-serif">table_schema_upsert</text>
  <rect x="336" y="458" width="122" height="28" rx="4" fill="#00796B" stroke="none"/>
  <text x="397" y="472" text-anchor="middle" dominant-baseline="central" fill="#FFFFFF" font-size="9" font-weight="400" font-family="sans-serif">表信息更新插入（Tool）</text>
  <line x1="458" y1="472" x2="592" y2="472" stroke="#78909C" stroke-width="0.7" marker-end="url(#arr)"/>
  <rect x="596" y="458" width="60" height="28" rx="14" fill="#26C6DA" stroke="none"/>
  <text x="626" y="472" text-anchor="middle" dominant-baseline="central" fill="#004D40" font-size="9" font-weight="400" font-family="sans-serif">结束</text>
<line x1="322" y1="510" x2="332" y2="510" stroke="#78909C" stroke-width="0.7" marker-end="url(#arr)"/>
  <text x="326" y="495" text-anchor="start" dominant-baseline="central" fill="#90CAF9" font-size="9" font-weight="400" font-family="sans-serif">sql_type_identify</text>
  <rect x="336" y="496" width="122" height="28" rx="4" fill="#00796B" stroke="none"/>
  <text x="397" y="510" text-anchor="middle" dominant-baseline="central" fill="#FFFFFF" font-size="9" font-weight="400" font-family="sans-serif">SQL类型识别（Tool）</text>
  <line x1="458" y1="510" x2="592" y2="510" stroke="#78909C" stroke-width="0.7" marker-end="url(#arr)"/>
  <rect x="596" y="496" width="60" height="28" rx="14" fill="#26C6DA" stroke="none"/>
  <text x="626" y="510" text-anchor="middle" dominant-baseline="central" fill="#004D40" font-size="9" font-weight="400" font-family="sans-serif">结束</text>
<line x1="322" y1="548" x2="332" y2="548" stroke="#78909C" stroke-width="0.7" marker-end="url(#arr)"/>
  <text x="326" y="533" text-anchor="start" dominant-baseline="central" fill="#90CAF9" font-size="9" font-weight="400" font-family="sans-serif">else（默认）</text>
  <rect x="336" y="534" width="122" height="28" rx="4" fill="#0277BD" stroke="none"/>
  <text x="397" y="548" text-anchor="middle" dominant-baseline="central" fill="#FFFFFF" font-size="9" font-weight="400" font-family="sans-serif">普通对话（LLM）</text>
  <line x1="458" y1="548" x2="592" y2="548" stroke="#78909C" stroke-width="0.7" marker-end="url(#arr)"/>
  <rect x="596" y="534" width="60" height="28" rx="14" fill="#26C6DA" stroke="none"/>
  <text x="626" y="548" text-anchor="middle" dominant-baseline="central" fill="#004D40" font-size="9" font-weight="400" font-family="sans-serif">结束</text>
<rect x="20" y="558" width="10" height="10" rx="2" fill="#0277BD" stroke="none"/>
<text x="34" y="563" text-anchor="start" dominant-baseline="central" fill="#90A4AE" font-size="9" font-weight="400" font-family="sans-serif">LLM 节点</text>
<rect x="140" y="558" width="10" height="10" rx="2" fill="#0096C7" stroke="none"/>
<text x="154" y="563" text-anchor="start" dominant-baseline="central" fill="#90A4AE" font-size="9" font-weight="400" font-family="sans-serif">工具节点</text>
<rect x="260" y="558" width="10" height="10" rx="2" fill="#00796B" stroke="none"/>
<text x="274" y="563" text-anchor="start" dominant-baseline="central" fill="#90A4AE" font-size="9" font-weight="400" font-family="sans-serif">DTStack工具</text>
<rect x="380" y="558" width="10" height="10" rx="2" fill="#5E35B1" stroke="none"/>
<text x="394" y="563" text-anchor="start" dominant-baseline="central" fill="#90A4AE" font-size="9" font-weight="400" font-family="sans-serif">条件判断</text>
<rect x="500" y="558" width="10" height="10" rx="2" fill="#26C6DA" stroke="none"/>
<text x="514" y="563" text-anchor="start" dominant-baseline="central" fill="#90A4AE" font-size="9" font-weight="400" font-family="sans-serif">结束节点</text>
</svg>